<svg width="87" height="52" viewBox="0 0 87 52" fill="none" xmlns="http://www.w3.org/2000/svg">
<g id="logo.svg" clip-path="url(#clip0_2513_10493)">
<g id="Clip path group">
<mask id="mask0_2513_10493" style="mask-type:luminance" maskUnits="userSpaceOnUse" x="0" y="0" width="87" height="52">
<g id="a">
<path id="Vector" d="M86.2558 0.722656H0.175781V51.9176H86.2558V0.722656Z" fill="white"/>
</g>
</mask>
<g mask="url(#mask0_2513_10493)">
<g id="Group">
<path id="Vector_2" d="M86.2558 15.3652C85.8625 15.4666 68.2275 23.9512 54.3301 27.9152L56.3738 31.0053L65.0964 26.9898C65.0964 26.9898 59.735 35.6206 54.4184 39.2723C56.4236 39.2424 64.1269 32.7548 66.1208 28.716" fill="#FFC100"/>
<path id="Vector_3" d="M0.175781 0.722656C0.175781 0.722656 2.74242 2.38236 7.1262 4.19989C7.66084 4.42085 8.21715 4.58367 8.78509 4.68833C11.545 5.19339 20.8722 7.05244 28.4438 10.3985C31.71 11.8422 34.6098 14.0003 36.9566 16.6867C40.7457 21.0245 47.0649 29.3513 52.7045 41.9195L41.2837 26.8459C41.0039 26.4755 40.7291 26.1 40.4676 25.7162C39.365 24.0964 34.3167 17.5041 24.1017 15.7115C22.8792 15.4972 21.63 15.5055 20.4025 15.331C18.0806 15.0004 9.31811 13.354 0.175781 0.722656Z" fill="white"/>
<path id="Vector_4" d="M48.3539 42.7749C48.3539 42.7749 46.1371 38.8989 43.6056 38.2244C43.6056 38.2244 36.1238 35.8553 35.6675 35.7656C35.6675 35.7639 39.9114 42.6387 48.3539 42.7749Z" fill="#FFC100"/>
<path id="Vector_5" d="M44.5665 36.7233C44.5665 36.7233 40.9273 30.3121 37.771 29.3934C37.6594 29.3618 37.2813 29.2339 37.1697 29.2007C35.6874 28.7571 27.5494 27.8965 24.03 25.8281C24.03 25.8281 27.5194 29.9998 30.9321 32.0964C31.1987 32.2593 31.4601 32.4287 31.7183 32.6015C32.6261 33.2112 35.8639 34.9972 44.5665 36.7233Z" fill="#FFC100"/>
<path id="Vector_6" d="M38.5423 27.6018C38.5423 27.6018 33.7055 21.4215 29.2268 20.2453C28.9503 20.1722 28.6654 20.1323 28.3806 20.1091C26.79 19.9761 20.0894 19.295 14.8562 16.9043C14.8562 16.9043 17.8193 21.3385 21.7184 23.6744C22.8043 24.3256 24.0218 24.7243 25.281 24.8622C28.1325 25.1729 35.1379 26.065 38.5423 27.6018Z" fill="#FFC100"/>
<path id="Vector_7" d="M48.882 44.3656C50.6077 43.8638 55.7956 40.5544 55.7956 40.5544C55.7956 40.5544 55.136 41.3286 54.127 42.4401C50.8374 46.06 47.02 48.6637 43.1907 49.9127C40.9622 50.6403 38.2573 51.4382 35.4724 51.7684C34.7629 51.8532 34.09 51.913 33.4171 51.913L23.2172 51.9166C23.0123 51.9166 22.9174 51.6805 23.0173 51.4164L23.9167 49.0207C24.03 48.7883 23.9934 48.5454 23.8334 48.4775L20.972 47.6067C20.8521 47.5704 20.7855 47.4373 20.8038 47.2678L21.0969 44.5101C21.1136 44.349 21.0553 44.221 20.9454 44.1762L19.3097 43.5366C19.2365 43.5083 19.1832 43.4402 19.1632 43.3472C19.0216 42.6959 18.5253 39.9364 19.5046 37.0174C19.6079 36.7084 19.9194 36.5322 20.0893 36.6801C22.3061 38.6206 35.0661 48.3878 48.882 44.3656Z" fill="#FFC100"/>
</g>
</g>
</g>
</g>
<defs>
<clipPath id="clip0_2513_10493">
<rect width="86.08" height="51.1949" fill="white" transform="translate(0.175781 0.722656)"/>
</clipPath>
</defs>
</svg>
