<svg width="149" height="49" viewBox="0 0 149 49" fill="none" xmlns="http://www.w3.org/2000/svg">
<path id="Vector" fill-rule="evenodd" clip-rule="evenodd" d="M45.5257 18.1278C43.5946 19.9205 44.1489 19.7137 39.6647 18.4037C35.7317 17.1622 37.5952 16.7486 34.0789 18.7481C30.9047 20.6108 25.7317 22.4736 23.3163 23.9211C24.215 25.9222 31.9395 32.4743 33.8022 35.1642C33.111 35.5086 32.5598 35.7854 31.8019 36.1306C30.6287 36.6818 30.9047 36.6818 29.5256 35.8546C26.4905 34.1295 16.7641 28.6121 14.833 27.7834C12.2823 28.8873 5.52102 32.3367 3.17786 32.1984C2.07314 32.1299 0.278841 31.854 0.627128 30.474C1.52194 27.0946 7.59207 25.2311 11.5243 23.5067C13.1087 22.8179 12.6951 22.8871 13.0403 21.1613C13.4562 19.2993 16.0769 5.77992 16.6973 5.09112C16.9733 4.88433 19.1112 3.98795 19.524 3.78038C19.7316 5.02271 19.8692 6.40185 19.9383 7.71181L20.6272 15.3679C20.6272 16.6094 20.8347 18.0578 21.0423 19.2301C22.835 18.3338 24.6286 17.575 26.4913 16.6786C35.7325 12.2636 34.0797 15.2303 36.2153 10.2641C37.4592 7.50502 37.4592 5.8491 40.1483 6.26425C39.6647 11.7816 41.1799 15.2311 45.5257 18.1278ZM43.5254 11.2996C42.4922 11.6448 42.9058 13.23 44.0774 12.9548L45.6649 12.4036C46.6289 12.1268 46.3545 10.4717 45.1129 10.8161L43.5254 11.2996ZM223.205 48.4768C224.1 49.1664 225.136 47.7865 224.238 47.1653L223.549 46.5457C222.584 45.7862 221.618 47.2345 222.446 47.8565L223.205 48.4768ZM218.445 44.6822C219.343 45.3726 220.376 43.9927 219.551 43.3039L218.17 42.2691C217.274 41.5788 216.238 42.8887 217.136 43.5791L218.445 44.6822ZM213.065 40.4756C213.892 41.1652 214.996 39.8552 214.099 39.1649L212.72 38.1301C211.824 37.4413 210.719 38.752 211.685 39.51L213.065 40.4756ZM207.546 36.5434C208.511 37.1653 209.411 35.717 208.511 35.0958L207.134 34.1295C206.097 33.5099 205.202 34.9582 206.167 35.5794L207.546 36.5434ZM201.891 32.6811C202.856 33.3023 203.753 31.8547 202.856 31.2328L201.41 30.3364C200.443 29.716 199.547 31.1644 200.443 31.784L201.891 32.6811ZM196.165 29.0257C197.063 29.6461 198.028 28.2669 197.063 27.5773L195.545 26.681C194.717 26.129 193.684 27.5082 194.717 28.1985L196.165 29.0257ZM190.303 25.577C191.339 26.1282 192.027 24.6107 191.132 24.1287L189.613 23.2315C188.58 22.7495 187.819 24.2663 188.786 24.7491L190.303 25.577ZM184.304 22.3344C185.337 22.8179 186.097 21.3681 185.062 20.8169L183.546 20.0581C182.509 19.5069 181.821 21.0928 182.785 21.5772L184.304 22.3344ZM178.162 19.3001C179.198 19.7829 179.957 18.2653 178.923 17.7833L177.404 17.0238C176.439 16.541 175.612 18.0586 176.645 18.5406L178.162 19.3001ZM172.026 16.4726C173.131 16.8862 173.682 15.2995 172.646 14.8851L171.13 14.1955C170.025 13.7827 169.404 15.4379 170.44 15.7823L172.026 16.4726ZM165.681 13.9203C166.714 14.3339 167.403 12.748 166.301 12.2644L164.713 11.7132C163.681 11.2996 163.06 12.8856 164.094 13.2992L165.681 13.9203ZM159.334 11.5748C160.508 11.92 160.852 10.1957 159.885 9.92048L158.23 9.36773C157.057 9.02333 156.713 10.6777 157.679 11.0229L159.334 11.5748ZM152.851 9.43614C153.955 9.78054 154.367 8.12618 153.333 7.8502L151.677 7.36742C150.574 7.02146 150.092 8.67737 151.196 8.95336L152.851 9.43614ZM146.298 7.64418C147.265 7.91939 147.885 6.33345 146.711 5.98749L145.058 5.57468C143.814 5.29947 143.608 7.02302 144.643 7.23059L146.298 7.64418ZM139.678 6.12742C140.78 6.33344 141.055 4.60834 140.022 4.40154L138.296 4.05715C137.193 3.85035 136.916 5.50548 138.021 5.7115L139.678 6.12742ZM132.986 4.81668C134.019 5.02348 134.436 3.36679 133.261 3.16078C132.71 3.02239 132.159 2.95398 131.536 2.8156C130.571 2.678 130.09 4.33313 131.261 4.53993C131.884 4.60834 132.435 4.74749 132.986 4.81668ZM126.225 3.78115C127.401 3.91876 127.538 2.26363 126.433 2.1268L124.779 1.91845C123.606 1.78084 123.466 3.50594 124.572 3.57514L126.225 3.78115ZM119.467 3.0908C120.57 3.22918 120.777 1.50563 119.606 1.36725L117.881 1.22965C116.847 1.16046 116.571 2.8156 117.811 2.95321L119.467 3.0908ZM112.708 2.67799C113.882 2.67799 113.812 0.953665 112.777 0.953665L111.051 0.883699C109.88 0.883699 109.88 2.53961 110.982 2.60958L112.708 2.67799ZM105.878 2.47119C106.983 2.47119 107.053 0.815285 105.878 0.746094C105.327 0.746094 104.706 0.746094 104.155 0.746094C103.119 0.746094 102.982 2.47119 104.155 2.47119C104.776 2.47119 105.327 2.47119 105.878 2.47119ZM99.0514 2.6088C100.293 2.53961 100.085 0.814503 98.9829 0.882916L97.3263 0.952882C96.1539 1.02207 96.2931 2.74562 97.3954 2.67721L99.0514 2.6088ZM92.2909 2.95321C93.3964 2.88479 93.3272 1.16045 92.1533 1.29806L90.4266 1.43566C89.3242 1.50485 89.4626 3.16 90.5658 3.09003L92.2909 2.95321ZM85.5328 3.64356C86.5659 3.50595 86.4983 1.78084 85.3252 1.91845C84.7724 1.98764 84.1528 2.05683 83.6016 2.1268C82.5653 2.19521 82.6345 3.91953 83.8092 3.78115C84.3596 3.71274 84.9108 3.64356 85.5328 3.64356ZM78.7731 4.47073C79.9446 4.26394 79.5311 2.6088 78.4978 2.8156L76.7728 3.0908C75.6704 3.29759 76.014 4.95429 77.048 4.7475L78.7731 4.47073ZM72.0118 5.64309C73.1173 5.43629 72.8405 3.78116 71.7366 3.98874L70.0146 4.26393C68.9775 4.47073 69.2535 6.19584 70.3582 5.98749L72.0118 5.64309ZM65.3921 7.02302C66.426 6.81623 66.1508 5.09189 64.9784 5.36788L63.3225 5.71228C62.1517 6.05824 62.7022 7.64418 63.7361 7.36897L65.3921 7.02302ZM58.7691 8.60818C59.8746 8.26456 59.3895 6.67862 58.3556 6.95383L56.6312 7.3682C55.5281 7.7126 56.0101 9.29854 57.1155 9.02333L58.7691 8.60818ZM52.2178 10.4025C53.2518 10.1273 52.8382 8.47058 51.7335 8.74812L50.0791 9.23012C49.0436 9.50611 49.3903 11.2304 50.5611 10.8853L52.2178 10.4025Z" fill="#D32F44"/>
</svg>
