<svg width="116" height="36" viewBox="0 0 116 36" fill="none" xmlns="http://www.w3.org/2000/svg">
<g id="VI&#225;&#187;&#134;T DU K&#195;&#157;">
<path id="Vector" d="M111.821 10.9785V20.3535C111.821 22.2285 110.883 23.166 109.008 23.166C107.133 23.166 106.196 22.2285 106.196 20.3535V9.10352C106.196 8.47852 106.508 8.16602 107.133 8.16602C107.758 8.16602 108.071 8.47852 108.071 9.10352V20.3535C108.071 20.9785 108.383 21.291 109.008 21.291C109.633 21.291 109.946 20.9785 109.946 20.3535V10.9785C109.946 9.10352 110.883 8.16602 112.758 8.16602C114.633 8.16602 115.571 9.10352 115.571 10.9785V27.8535C115.571 29.7285 114.633 30.666 112.758 30.666H107.133C106.508 30.666 106.196 30.3535 106.196 29.7285C106.196 29.1035 106.508 28.791 107.133 28.791H112.758C113.383 28.791 113.696 28.4785 113.696 27.8535V10.9785C113.696 10.3535 113.383 10.041 112.758 10.041C112.133 10.041 111.821 10.3535 111.821 10.9785ZM111.821 5.35352C111.821 5.97852 111.508 6.29102 110.883 6.29102C110.258 6.29102 109.946 5.97852 109.946 5.35352V1.60352C109.946 0.978516 110.258 0.666016 110.883 0.666016C111.508 0.666016 111.821 0.978516 111.821 1.60352V5.35352Z" fill="white"/>
<path id="Vector_2" d="M92.3857 27.8535V10.9785C92.3857 9.10352 93.3232 8.16602 95.1982 8.16602H98.9482C100.823 8.16602 101.761 9.10352 101.761 10.9785C101.761 12.8535 100.823 13.791 98.9482 13.791C98.3232 13.791 98.0107 14.1035 98.0107 14.7285V27.8535C98.0107 28.4785 98.3232 28.791 98.9482 28.791H100.823C101.448 28.791 101.761 29.1035 101.761 29.7285C101.761 30.3535 101.448 30.666 100.823 30.666H98.9482C97.0732 30.666 96.1357 29.7285 96.1357 27.8535V14.7285C96.1357 12.8535 97.0732 11.916 98.9482 11.916C99.5732 11.916 99.8857 11.6035 99.8857 10.9785C99.8857 10.3535 99.5732 10.041 98.9482 10.041H95.1982C94.5732 10.041 94.2607 10.3535 94.2607 10.9785V27.8535C94.2607 29.7285 93.3232 30.666 91.4482 30.666C89.5732 30.666 88.6357 29.7285 88.6357 27.8535V9.10352C88.6357 8.47852 88.9482 8.16602 89.5732 8.16602C90.1982 8.16602 90.5107 8.47852 90.5107 9.10352V27.8535C90.5107 28.4785 90.8232 28.791 91.4482 28.791C92.0732 28.791 92.3857 28.4785 92.3857 27.8535Z" fill="white"/>
<path id="Vector_3" d="M70.3909 10.9785V27.8535C70.3909 29.7285 69.4534 30.666 67.5784 30.666C65.7034 30.666 64.7659 29.7285 64.7659 27.8535V9.10352C64.7659 8.47852 65.0784 8.16602 65.7034 8.16602C66.3284 8.16602 66.6409 8.47852 66.6409 9.10352V27.8535C66.6409 28.4785 66.9534 28.791 67.5784 28.791C68.2034 28.791 68.5159 28.4785 68.5159 27.8535V10.9785C68.5159 9.10352 69.4534 8.16602 71.3284 8.16602C73.2034 8.16602 74.1409 9.10352 74.1409 10.9785V29.7285C74.1409 30.3535 73.8284 30.666 73.2034 30.666C72.5784 30.666 72.2659 30.3535 72.2659 29.7285V10.9785C72.2659 10.3535 71.9534 10.041 71.3284 10.041C70.7034 10.041 70.3909 10.3535 70.3909 10.9785Z" fill="white"/>
<path id="Vector_4" d="M54.7058 25.9785V14.7285C54.7058 14.1035 54.3933 13.791 53.7683 13.791C53.1433 13.791 52.8308 14.1035 52.8308 14.7285V27.8535C52.8308 28.4785 53.1433 28.791 53.7683 28.791H57.5183C58.1433 28.791 58.4558 28.4785 58.4558 27.8535V10.9785C58.4558 10.3535 58.1433 10.041 57.5183 10.041H51.8933C51.2683 10.041 50.9558 9.72852 50.9558 9.10352C50.9558 8.47852 51.2683 8.16602 51.8933 8.16602H57.5183C59.3933 8.16602 60.3308 9.10352 60.3308 10.9785V27.8535C60.3308 29.7285 59.3933 30.666 57.5183 30.666H53.7683C51.8933 30.666 50.9558 29.7285 50.9558 27.8535V14.7285C50.9558 12.8535 51.8933 11.916 53.7683 11.916C55.6433 11.916 56.5808 12.8535 56.5808 14.7285V25.9785C56.5808 26.6035 56.2683 26.916 55.6433 26.916C55.0183 26.916 54.7058 26.6035 54.7058 25.9785Z" fill="white"/>
<path id="Vector_5" d="M28.0232 8.16602H33.6482C35.5232 8.16602 36.4607 9.10352 36.4607 10.9785C36.4607 12.8535 35.5232 13.791 33.6482 13.791C33.0232 13.791 32.7107 14.1035 32.7107 14.7285V29.7285C32.7107 30.3535 32.3982 30.666 31.7732 30.666C31.1482 30.666 30.8357 30.3535 30.8357 29.7285V14.7285C30.8357 12.8535 31.7732 11.916 33.6482 11.916C34.2732 11.916 34.5857 11.6035 34.5857 10.9785C34.5857 10.3535 34.2732 10.041 33.6482 10.041H28.0232C27.3982 10.041 27.0857 9.72852 27.0857 9.10352C27.0857 8.47852 27.3982 8.16602 28.0232 8.16602Z" fill="white"/>
<path id="Vector_6" d="M22.6509 10.9785V12.8535C22.6509 13.4785 22.3384 13.791 21.7134 13.791C21.0884 13.791 20.7759 13.4785 20.7759 12.8535V10.9785C20.7759 10.3535 20.4634 10.041 19.8384 10.041C19.2134 10.041 18.9009 10.3535 18.9009 10.9785V14.7285C18.9009 15.316 19.2134 15.6098 19.8384 15.6098C21.7134 15.6473 22.6509 16.6035 22.6509 18.4785C22.6509 20.3535 21.7134 21.291 19.8384 21.291C19.2134 21.291 18.9009 21.6035 18.9009 22.2285V27.8535C18.9009 28.4785 19.2134 28.791 19.8384 28.791C20.4634 28.791 20.7759 28.4785 20.7759 27.8535V24.1035C20.7759 23.4785 21.0884 23.166 21.7134 23.166C22.3384 23.166 22.6509 23.4785 22.6509 24.1035V27.8535C22.6509 29.7285 21.7134 30.666 19.8384 30.666C17.9634 30.666 17.0259 29.7285 17.0259 27.8535V22.2285C17.0259 20.3535 17.9634 19.416 19.8384 19.416C20.4634 19.416 20.7759 19.1035 20.7759 18.4785C20.7759 17.8535 20.4634 17.541 19.8384 17.541C17.9634 17.541 17.0259 16.6035 17.0259 14.7285V10.9785C17.0259 9.10352 17.9634 8.16602 19.8384 8.16602C21.7134 8.16602 22.6509 9.10352 22.6509 10.9785ZM17.9821 34.0973C17.9821 32.8598 18.6009 32.241 19.8384 32.241C21.0759 32.241 21.6946 32.8598 21.6946 34.0973C21.6946 35.3473 21.0759 35.9723 19.8384 35.9723C18.6009 35.9723 17.9821 35.3473 17.9821 34.0973ZM19.2196 34.0973C19.2196 34.5098 19.4259 34.716 19.8384 34.716C20.2509 34.716 20.4571 34.5098 20.4571 34.0973C20.4571 33.6848 20.2509 33.4785 19.8384 33.4785C19.4259 33.4785 19.2196 33.6848 19.2196 34.0973ZM22.6509 3.47852C22.6509 4.10352 22.9634 4.41602 23.5884 4.41602C24.2134 4.41602 24.5259 4.72852 24.5259 5.35352C24.5259 5.97852 24.2134 6.29102 23.5884 6.29102C21.7134 6.29102 20.7759 5.35352 20.7759 3.47852C20.7759 2.85352 20.4634 2.54102 19.8384 2.54102C19.2134 2.54102 18.9009 2.85352 18.9009 3.47852C18.9009 5.35352 17.9634 6.29102 16.0884 6.29102C15.4634 6.29102 15.1509 5.97852 15.1509 5.35352C15.1509 4.72852 15.4634 4.41602 16.0884 4.41602C16.7134 4.41602 17.0259 4.10352 17.0259 3.47852C17.0259 1.60352 17.9634 0.666016 19.8384 0.666016C21.7134 0.666016 22.6509 1.60352 22.6509 3.47852Z" fill="white"/>
<path id="Vector_7" d="M11.6533 30.666C11.0283 30.666 10.7158 30.3535 10.7158 29.7285V9.10352C10.7158 8.47852 11.0283 8.16602 11.6533 8.16602C12.2783 8.16602 12.5908 8.47852 12.5908 9.10352V29.7285C12.5908 30.3535 12.2783 30.666 11.6533 30.666Z" fill="white"/>
<path id="Vector_8" d="M0.655762 27.8535V9.10352C0.655762 8.47852 0.968262 8.16602 1.59326 8.16602C2.21826 8.16602 2.53076 8.47852 2.53076 9.10352V27.8535C2.53076 28.4785 2.84326 28.791 3.46826 28.791C4.09326 28.791 4.40576 28.4785 4.40576 27.8535V9.10352C4.40576 8.47852 4.71826 8.16602 5.34326 8.16602C5.96826 8.16602 6.28076 8.47852 6.28076 9.10352V27.8535C6.28076 29.7285 5.34326 30.666 3.46826 30.666C1.59326 30.666 0.655762 29.7285 0.655762 27.8535Z" fill="white"/>
</g>
</svg>
